# xmcd
#
# Track frame offsets: 
#        150
#        13799
#        32411
#        51348
#        77857
#        96167
#        112651
#        128053
#        142301
#        161681
#        179540
#        200071
#        216457
#        229829
#
# Disc length: 3423 seconds
#
# Revision: 2
# Processed by: cddbd v1.5PL3 Copyright (c) Steve Scherf et al.
# Submitted via: ExactAudioCopy v0.90b4
#
DISCID=ca0d5d0e
DTITLE=The Blues Conspiracy - Let's Have A Blues Party
DYEAR=2004
DGENRE=Blues
TTITLE0=Memphis Train
TTITLE1=Mellow Down Easy
TTITLE2=Hoodoo Lady
TTITLE3=(I Know) I'm Losin' You
TTITLE4=Blues Walk
TTITLE5=Built For Comfort
TTITLE6=Looking For A Fax
TTITLE7=Worried About It
TTITLE8=Long As I Can See The Light
TTITLE9=Close To You
TTITLE10=I Wanna Be Free
TTITLE11=Tulsa Time
TTITLE12=Girlfriend Blues
TTITLE13=Livin' On The Highway
EXTD=www.dixiefrog.com
EXTT0=
EXTT1=
EXTT2=
EXTT3=
EXTT4=
EXTT5=
EXTT6=
EXTT7=
EXTT8=
EXTT9=
EXTT10=
EXTT11=
EXTT12=
EXTT13=
PLAYORDER=
